<svg version="1.1" id="Layer_1" xmlns="http://www.w3.org/2000/svg" xmlns:xlink="http://www.w3.org/1999/xlink" x="0px" y="0px"
	 width="100%" viewBox="0 0 256 256" enable-background="new 0 0 256 256" xml:space="preserve">
<path fill="#FFFFFF" opacity="1.000000" stroke="none" 
	d="
M257.000000,91.000000 
	C257.000000,146.666672 257.000000,201.833328 257.000000,257.000000 
	C171.666672,257.000000 86.333336,257.000000 1.000000,257.000000 
	C1.000000,171.666672 1.000000,86.333336 1.000000,1.000000 
	C86.333336,1.000000 171.666672,1.000000 257.000000,1.000000 
	C257.000000,30.833334 257.000000,60.666668 257.000000,91.000000 
M247.000061,170.500000 
	C247.000076,133.012009 247.026779,95.523979 246.957199,58.036121 
	C246.950531,54.436413 246.542862,50.806763 245.984604,47.243774 
	C242.558044,25.373987 224.264603,11.189198 203.347275,11.079959 
	C155.030716,10.827631 106.711906,10.977974 58.394123,11.042521 
	C54.627800,11.047553 50.833908,11.465440 47.101074,12.017598 
	C25.644886,15.191378 11.255899,32.992085 11.107445,54.114635 
	C10.766698,102.596725 10.977962,151.082886 11.042468,199.567276 
	C11.047480,203.333527 11.499043,207.120544 12.011147,210.861221 
	C14.916375,232.082458 33.467037,246.865585 54.569611,246.942795 
	C103.719887,247.122650 152.871292,247.015533 202.022171,246.959412 
	C204.786453,246.956253 207.551514,246.376831 210.313721,246.044815 
	C232.267593,243.405731 247.341888,223.494278 247.025726,201.989868 
	C246.876328,191.828644 247.000092,181.663422 247.000061,170.500000 
z"/>
<path fill="#1D4ED8" opacity="1.000000" stroke="none" 
	d="
M247.000061,171.000000 
	C247.000092,181.663422 246.876328,191.828644 247.025726,201.989868 
	C247.341888,223.494278 232.267593,243.405731 210.313721,246.044815 
	C207.551514,246.376831 204.786453,246.956253 202.022171,246.959412 
	C152.871292,247.015533 103.719887,247.122650 54.569611,246.942795 
	C33.467037,246.865585 14.916375,232.082458 12.011147,210.861221 
	C11.499043,207.120544 11.047480,203.333527 11.042468,199.567276 
	C10.977962,151.082886 10.766698,102.596725 11.107445,54.114635 
	C11.255899,32.992085 25.644886,15.191378 47.101074,12.017598 
	C50.833908,11.465440 54.627800,11.047553 58.394123,11.042521 
	C106.711906,10.977974 155.030716,10.827631 203.347275,11.079959 
	C224.264603,11.189198 242.558044,25.373987 245.984604,47.243774 
	C246.542862,50.806763 246.950531,54.436413 246.957199,58.036121 
	C247.026779,95.523979 247.000076,133.012009 247.000061,171.000000 
M203.874268,33.394291 
	C202.727615,33.263210 201.581009,33.017956 200.434311,33.017490 
	C152.938965,32.998096 105.443420,32.941586 57.948662,33.107899 
	C53.968807,33.121834 49.722626,34.023289 46.068916,35.599174 
	C35.703869,40.069729 33.074802,49.325081 33.050129,59.481163 
	C32.936779,106.142982 32.953205,152.805359 33.086826,199.467072 
	C33.097855,203.319229 33.779995,207.371353 35.105469,210.979691 
	C38.946838,221.437042 47.763790,224.873993 57.853218,224.914520 
	C105.347794,225.105240 152.843872,225.091400 200.338638,224.924561 
	C210.311127,224.889542 218.881622,221.207825 222.747772,211.213226 
	C224.356781,207.053711 224.889908,202.251953 224.907623,197.738281 
	C225.066040,157.409531 225.053604,117.079765 224.954926,76.750626 
	C224.935104,68.649544 223.957230,60.542767 224.109131,52.451527 
	C224.267395,44.021603 213.700165,32.956715 203.874268,33.394291 
z"/>
<path fill="#FFFFFF" opacity="1.000000" stroke="none" 
	d="
M204.253052,33.633354 
	C213.700165,32.956715 224.267395,44.021603 224.109131,52.451527 
	C223.957230,60.542767 224.935104,68.649544 224.954926,76.750626 
	C225.053604,117.079765 225.066040,157.409531 224.907623,197.738281 
	C224.889908,202.251953 224.356781,207.053711 222.747772,211.213226 
	C218.881622,221.207825 210.311127,224.889542 200.338638,224.924561 
	C152.843872,225.091400 105.347794,225.105240 57.853218,224.914520 
	C47.763790,224.873993 38.946838,221.437042 35.105469,210.979691 
	C33.779995,207.371353 33.097855,203.319229 33.086826,199.467072 
	C32.953205,152.805359 32.936779,106.142982 33.050129,59.481163 
	C33.074802,49.325081 35.703869,40.069729 46.068916,35.599174 
	C49.722626,34.023289 53.968807,33.121834 57.948662,33.107899 
	C105.443420,32.941586 152.938965,32.998096 200.434311,33.017490 
	C201.581009,33.017956 202.727615,33.263210 204.253052,33.633354 
M187.913574,93.185310 
	C186.286072,89.800354 185.488434,85.400345 182.854233,83.246758 
	C177.744064,79.068939 172.188614,80.318535 167.044128,85.456955 
	C148.901138,103.578613 130.790009,121.732170 112.600723,139.939774 
	C111.739716,139.141068 110.979507,138.506012 110.299591,137.794250 
	C103.664467,130.848465 97.147560,123.785866 90.382828,116.969048 
	C85.309814,111.856979 78.782623,111.736061 74.231331,116.277061 
	C69.393509,121.103951 69.508522,127.879074 74.457733,132.982437 
	C84.049110,142.872543 93.571907,152.829498 103.205513,162.678146 
	C109.377159,168.987579 115.512611,168.979370 121.646751,162.847137 
	C142.022858,142.477386 162.438858,122.147064 182.701736,101.665268 
	C184.798309,99.546036 185.973587,96.515366 187.913574,93.185310 
z"/>
<path fill="#1D4ED8" opacity="1.000000" stroke="none" 
	d="
M187.744965,93.546448 
	C185.973587,96.515366 184.798309,99.546036 182.701736,101.665268 
	C162.438858,122.147064 142.022858,142.477386 121.646751,162.847137 
	C115.512611,168.979370 109.377159,168.987579 103.205513,162.678146 
	C93.571907,152.829498 84.049110,142.872543 74.457733,132.982437 
	C69.508522,127.879074 69.393509,121.103951 74.231331,116.277061 
	C78.782623,111.736061 85.309814,111.856979 90.382828,116.969048 
	C97.147560,123.785866 103.664467,130.848465 110.299591,137.794250 
	C110.979507,138.506012 111.739716,139.141068 112.600723,139.939774 
	C130.790009,121.732170 148.901138,103.578613 167.044128,85.456955 
	C172.188614,80.318535 177.744064,79.068939 182.854233,83.246758 
	C185.488434,85.400345 186.286072,89.800354 187.744965,93.546448 
z"/>
</svg>